<mxfile host="app.diagrams.net" modified="2024-02-20T13:20:13.805Z" agent="Mozilla/5.0 (Windows NT 10.0; Win64; x64) AppleWebKit/537.36 (KHTML, like Gecko) Chrome/121.0.0.0 Safari/537.36" etag="SZsLcqsd-Hmr8l4VKTiU" version="23.1.5" type="github" pages="2">
  <diagram name="Page-1" id="sruPwGNAfFjqxQfSj9eQ">
    <mxGraphModel dx="1050" dy="522" grid="1" gridSize="10" guides="1" tooltips="1" connect="1" arrows="1" fold="1" page="1" pageScale="1" pageWidth="850" pageHeight="1100" math="0" shadow="0">
      <root>
        <mxCell id="0" />
        <mxCell id="1" parent="0" />
        <mxCell id="ApaYdpwqdjf-SMGxklPl-1" value="Start" style="ellipse;whiteSpace=wrap;html=1;" vertex="1" parent="1">
          <mxGeometry x="170" y="50" width="120" height="80" as="geometry" />
        </mxCell>
        <mxCell id="ApaYdpwqdjf-SMGxklPl-3" value="" style="endArrow=classic;html=1;rounded=0;entryX=0.5;entryY=0;entryDx=0;entryDy=0;" edge="1" parent="1">
          <mxGeometry width="50" height="50" relative="1" as="geometry">
            <mxPoint x="230" y="180" as="sourcePoint" />
            <mxPoint x="230" y="180" as="targetPoint" />
            <Array as="points">
              <mxPoint x="230" y="130" />
            </Array>
          </mxGeometry>
        </mxCell>
        <mxCell id="ApaYdpwqdjf-SMGxklPl-5" value="SplashScreen" style="rounded=0;whiteSpace=wrap;html=1;" vertex="1" parent="1">
          <mxGeometry x="170" y="180" width="120" height="60" as="geometry" />
        </mxCell>
        <mxCell id="ApaYdpwqdjf-SMGxklPl-7" value="" style="endArrow=classic;html=1;rounded=0;entryX=0.5;entryY=0;entryDx=0;entryDy=0;" edge="1" parent="1">
          <mxGeometry width="50" height="50" relative="1" as="geometry">
            <mxPoint x="229.5" y="290" as="sourcePoint" />
            <mxPoint x="229.5" y="290" as="targetPoint" />
            <Array as="points">
              <mxPoint x="229.5" y="240" />
            </Array>
          </mxGeometry>
        </mxCell>
        <mxCell id="ApaYdpwqdjf-SMGxklPl-9" value="Login Screen" style="rounded=0;whiteSpace=wrap;html=1;" vertex="1" parent="1">
          <mxGeometry x="170" y="290" width="120" height="60" as="geometry" />
        </mxCell>
        <mxCell id="ApaYdpwqdjf-SMGxklPl-10" value="Check If Api Success&amp;nbsp;" style="rhombus;whiteSpace=wrap;html=1;" vertex="1" parent="1">
          <mxGeometry x="190" y="390" width="80" height="80" as="geometry" />
        </mxCell>
        <mxCell id="ApaYdpwqdjf-SMGxklPl-11" value="" style="endArrow=classic;html=1;rounded=0;entryX=0.5;entryY=0;entryDx=0;entryDy=0;" edge="1" parent="1">
          <mxGeometry width="50" height="50" relative="1" as="geometry">
            <mxPoint x="229.5" y="400" as="sourcePoint" />
            <mxPoint x="229.5" y="400" as="targetPoint" />
            <Array as="points">
              <mxPoint x="229.5" y="350" />
            </Array>
          </mxGeometry>
        </mxCell>
        <mxCell id="ApaYdpwqdjf-SMGxklPl-12" value="" style="endArrow=classic;html=1;rounded=0;exitX=0;exitY=0.5;exitDx=0;exitDy=0;" edge="1" parent="1" source="ApaYdpwqdjf-SMGxklPl-10">
          <mxGeometry width="50" height="50" relative="1" as="geometry">
            <mxPoint x="130" y="470" as="sourcePoint" />
            <mxPoint x="130" y="430" as="targetPoint" />
          </mxGeometry>
        </mxCell>
        <mxCell id="ApaYdpwqdjf-SMGxklPl-13" value="" style="endArrow=classic;html=1;rounded=0;entryX=0;entryY=0.75;entryDx=0;entryDy=0;" edge="1" parent="1" target="ApaYdpwqdjf-SMGxklPl-9">
          <mxGeometry width="50" height="50" relative="1" as="geometry">
            <mxPoint x="130" y="430" as="sourcePoint" />
            <mxPoint x="130" y="340" as="targetPoint" />
            <Array as="points">
              <mxPoint x="130" y="380" />
              <mxPoint x="130" y="335" />
            </Array>
          </mxGeometry>
        </mxCell>
        <mxCell id="ApaYdpwqdjf-SMGxklPl-18" value="" style="edgeStyle=orthogonalEdgeStyle;rounded=0;orthogonalLoop=1;jettySize=auto;html=1;" edge="1" parent="1" source="ApaYdpwqdjf-SMGxklPl-14" target="ApaYdpwqdjf-SMGxklPl-10">
          <mxGeometry relative="1" as="geometry" />
        </mxCell>
        <mxCell id="ApaYdpwqdjf-SMGxklPl-14" value="Store In Local Storage Login Data" style="shape=cylinder3;whiteSpace=wrap;html=1;boundedLbl=1;backgroundOutline=1;size=15;" vertex="1" parent="1">
          <mxGeometry x="200" y="510" width="60" height="100" as="geometry" />
        </mxCell>
        <mxCell id="ApaYdpwqdjf-SMGxklPl-15" value="" style="endArrow=classic;html=1;rounded=0;entryX=0.5;entryY=0;entryDx=0;entryDy=0;" edge="1" parent="1">
          <mxGeometry width="50" height="50" relative="1" as="geometry">
            <mxPoint x="229.5" y="510" as="sourcePoint" />
            <mxPoint x="229.5" y="510" as="targetPoint" />
            <Array as="points">
              <mxPoint x="229.5" y="460" />
            </Array>
          </mxGeometry>
        </mxCell>
        <mxCell id="ApaYdpwqdjf-SMGxklPl-34" value="" style="edgeStyle=orthogonalEdgeStyle;rounded=0;orthogonalLoop=1;jettySize=auto;html=1;" edge="1" parent="1" source="ApaYdpwqdjf-SMGxklPl-17" target="ApaYdpwqdjf-SMGxklPl-20">
          <mxGeometry relative="1" as="geometry" />
        </mxCell>
        <mxCell id="ApaYdpwqdjf-SMGxklPl-17" value="Spalsh Screen" style="rounded=0;whiteSpace=wrap;html=1;" vertex="1" parent="1">
          <mxGeometry x="330" y="670" width="120" height="60" as="geometry" />
        </mxCell>
        <mxCell id="ApaYdpwqdjf-SMGxklPl-19" value="" style="endArrow=classic;html=1;rounded=0;entryX=0.5;entryY=0;entryDx=0;entryDy=0;" edge="1" parent="1">
          <mxGeometry width="50" height="50" relative="1" as="geometry">
            <mxPoint x="229.5" y="660" as="sourcePoint" />
            <mxPoint x="229.5" y="660" as="targetPoint" />
            <Array as="points">
              <mxPoint x="229.5" y="610" />
            </Array>
          </mxGeometry>
        </mxCell>
        <mxCell id="ApaYdpwqdjf-SMGxklPl-20" value="Driver Navigation Screen" style="rounded=0;whiteSpace=wrap;html=1;" vertex="1" parent="1">
          <mxGeometry x="520" y="670" width="120" height="60" as="geometry" />
        </mxCell>
        <mxCell id="ApaYdpwqdjf-SMGxklPl-29" value="" style="edgeStyle=orthogonalEdgeStyle;rounded=0;orthogonalLoop=1;jettySize=auto;html=1;" edge="1" parent="1" source="ApaYdpwqdjf-SMGxklPl-23" target="ApaYdpwqdjf-SMGxklPl-28">
          <mxGeometry relative="1" as="geometry" />
        </mxCell>
        <mxCell id="ApaYdpwqdjf-SMGxklPl-23" value="Check UserType" style="rhombus;whiteSpace=wrap;html=1;" vertex="1" parent="1">
          <mxGeometry x="190" y="660" width="80" height="80" as="geometry" />
        </mxCell>
        <mxCell id="ApaYdpwqdjf-SMGxklPl-26" value="" style="endArrow=classic;html=1;rounded=0;exitX=1;exitY=0.5;exitDx=0;exitDy=0;entryX=0;entryY=0.5;entryDx=0;entryDy=0;" edge="1" parent="1" source="ApaYdpwqdjf-SMGxklPl-23" target="ApaYdpwqdjf-SMGxklPl-17">
          <mxGeometry width="50" height="50" relative="1" as="geometry">
            <mxPoint x="280" y="740" as="sourcePoint" />
            <mxPoint x="330" y="690" as="targetPoint" />
          </mxGeometry>
        </mxCell>
        <mxCell id="ApaYdpwqdjf-SMGxklPl-27" value="If Driver" style="text;html=1;align=center;verticalAlign=middle;whiteSpace=wrap;rounded=0;" vertex="1" parent="1">
          <mxGeometry x="270" y="680" width="60" height="30" as="geometry" />
        </mxCell>
        <mxCell id="ApaYdpwqdjf-SMGxklPl-31" value="" style="edgeStyle=orthogonalEdgeStyle;rounded=0;orthogonalLoop=1;jettySize=auto;html=1;" edge="1" parent="1" source="ApaYdpwqdjf-SMGxklPl-28" target="ApaYdpwqdjf-SMGxklPl-30">
          <mxGeometry relative="1" as="geometry" />
        </mxCell>
        <mxCell id="ApaYdpwqdjf-SMGxklPl-28" value="Splash Screen" style="whiteSpace=wrap;html=1;" vertex="1" parent="1">
          <mxGeometry x="170" y="770" width="120" height="60" as="geometry" />
        </mxCell>
        <mxCell id="ApaYdpwqdjf-SMGxklPl-30" value="Driver User Navigation Screen" style="whiteSpace=wrap;html=1;" vertex="1" parent="1">
          <mxGeometry x="170" y="870" width="120" height="60" as="geometry" />
        </mxCell>
        <mxCell id="ApaYdpwqdjf-SMGxklPl-32" value="If Driver User" style="text;html=1;align=center;verticalAlign=middle;whiteSpace=wrap;rounded=0;" vertex="1" parent="1">
          <mxGeometry x="230" y="740" width="60" height="30" as="geometry" />
        </mxCell>
        <mxCell id="ApaYdpwqdjf-SMGxklPl-35" value="IF Fail Show Toast" style="text;html=1;align=center;verticalAlign=middle;whiteSpace=wrap;rounded=0;" vertex="1" parent="1">
          <mxGeometry x="130" y="390" width="60" height="30" as="geometry" />
        </mxCell>
      </root>
    </mxGraphModel>
  </diagram>
  <diagram id="I945R_J2DJ0MxBZuMxt_" name="Page-2">
    <mxGraphModel dx="1050" dy="522" grid="1" gridSize="10" guides="1" tooltips="1" connect="1" arrows="1" fold="1" page="1" pageScale="1" pageWidth="850" pageHeight="1100" math="0" shadow="0">
      <root>
        <mxCell id="0" />
        <mxCell id="1" parent="0" />
      </root>
    </mxGraphModel>
  </diagram>
</mxfile>
